<?xml version="1.0" encoding="UTF-8" standalone="no"?> <svg xmlns="http://www.w3.org/2000/svg" viewBox="0 0 48 48" style="fill: white;"><title>Single Bed</title><g id="Single_Bed" data-name="Single Bed"><path d="M42,42H36v1a2,2,0,0,0,2,2h2a2,2,0,0,0,2-2Z"/><path d="M12,42H6v1a2,2,0,0,0,2,2h2a2,2,0,0,0,2-2Z"/><path d="M33,19v1H15V19a4,4,0,0,1,4-4H29A4,4,0,0,1,33,19Z"/><path d="M34,4H14a7.008,7.008,0,0,0-7,7v9.94A8.988,8.988,0,0,1,11,20h2V19a6,6,0,0,1,6-6H29a6,6,0,0,1,6,6v1h2a8.988,8.988,0,0,1,4,.94V11A7.008,7.008,0,0,0,34,4Z"/><path d="M4,34v4a2,2,0,0,0,2,2H42a2,2,0,0,0,2-2V34Z"/><path d="M44,32V29a7,7,0,0,0-7-7H11a7,7,0,0,0-7,7v3Z"/></g></svg>