<?xml version="1.0" encoding="utf-8"?>
<!-- Generator: Adobe Illustrator 25.2.3, SVG Export Plug-In . SVG Version: 6.00 Build 0)  -->
<svg version="1.1" id="solid_line" xmlns="http://www.w3.org/2000/svg" xmlns:xlink="http://www.w3.org/1999/xlink" x="0px" y="0px"
	 viewBox="0 0 512 512" enable-background="new 0 0 512 512" xml:space="preserve" fill="white" stroke="white">
<path d="M264.349,271.6c14.4-3.52,25.12-16.16,25.12-31.28s-10.72-27.76-25.12-31.28V271.6z"/>
<path d="M223.229,159.68c0,15.12,10.72,27.76,25.12,31.28V128.4C233.949,131.92,223.229,144.56,223.229,159.68z"/>
<path d="M368.349,8h-224c-4.4,0-8,3.6-8,8v288c0,4.4-3.6,8-8,8h-52.08c-7.28,0-10.8,8.8-5.6,13.76l180.16,172.96
	c3.04,2.96,8,2.96,11.04,0l180.16-172.96c5.2-4.96,1.68-13.76-5.6-13.76h-52.08c-4.4,0-8-3.6-8-8V16
	C376.349,11.6,372.749,8,368.349,8z M305.469,240.32c0,23.92-17.84,43.84-41.12,47.6V296c0,4.4-3.6,8-8,8c-4.4,0-8-3.6-8-8v-8.08
	c-23.28-3.76-41.12-23.68-41.12-47.6c0-4.4,3.6-8,8-8s8,3.6,8,8c0,15.12,10.72,27.76,25.12,31.28v-64.32
	c-23.28-3.76-41.12-23.68-41.12-47.6c0-23.92,17.84-43.84,41.12-47.6V104c0-4.4,3.6-8,8-8c4.4,0,8,3.6,8,8v8.08
	c23.28,3.76,41.12,23.68,41.12,47.6c0,4.4-3.6,8-8,8s-8-3.6-8-8c0-15.12-10.72-27.76-25.12-31.28v64.32
	C287.629,196.48,305.469,216.4,305.469,240.32z"/>
</svg>
