<?xml version="1.0" encoding="UTF-8" standalone="no"?> <svg width="64" height="64" viewBox="0 0 64 64" fill="white" xmlns="http://www.w3.org/2000/svg">
<path d="M53 6H49C48.7348 6 48.4804 6.10536 48.2929 6.29289C48.1054 6.48043 48 6.73478 48 7V12H46V7C46 6.73478 45.8946 6.48043 45.7071 6.29289C45.5196 6.10536 45.2652 6 45 6H41C40.7348 6 40.4804 6.10536 40.2929 6.29289C40.1054 6.48043 40 6.73478 40 7V12H38V4C37.9991 3.84346 37.9614 3.68932 37.89 3.55L36.89 1.55C36.8069 1.38509 36.6798 1.2464 36.5227 1.14932C36.3656 1.05224 36.1847 1.00056 36 1H28C27.8153 1.00056 27.6344 1.05224 27.4773 1.14932C27.3202 1.2464 27.1931 1.38509 27.11 1.55L26.11 3.55C26.0386 3.68932 26.0009 3.84346 26 4V12H24V7C24 6.73478 23.8946 6.48043 23.7071 6.29289C23.5196 6.10536 23.2652 6 23 6H19C18.7348 6 18.4804 6.10536 18.2929 6.29289C18.1054 6.48043 18 6.73478 18 7V12H16V7C16 6.73478 15.8946 6.48043 15.7071 6.29289C15.5196 6.10536 15.2652 6 15 6H11C10.7348 6 10.4804 6.10536 10.2929 6.29289C10.1054 6.48043 10 6.73478 10 7V12H4C3.73478 12 3.48043 12.1054 3.29289 12.2929C3.10536 12.4804 3 12.7348 3 13V17C3 17.2652 3.10536 17.5196 3.29289 17.7071C3.48043 17.8946 3.73478 18 4 18H8.59L24.59 34H17C16.7348 34 16.4804 34.1054 16.2929 34.2929C16.1054 34.4804 16 34.7348 16 35V51C16 51.2652 16.1054 51.5196 16.2929 51.7071C16.4804 51.8946 16.7348 52 17 52H26V62C26 62.2652 26.1054 62.5196 26.2929 62.7071C26.4804 62.8946 26.7348 63 27 63H37C37.2652 63 37.5196 62.8946 37.7071 62.7071C37.8946 62.5196 38 62.2652 38 62V52H47C47.2652 52 47.5196 51.8946 47.7071 51.7071C47.8946 51.5196 48 51.2652 48 51V35C48 34.7348 47.8946 34.4804 47.7071 34.2929C47.5196 34.1054 47.2652 34 47 34H39.41L55.41 18H60C60.2652 18 60.5196 17.8946 60.7071 17.7071C60.8946 17.5196 61 17.2652 61 17V13C61 12.7348 60.8946 12.4804 60.7071 12.2929C60.5196 12.1054 60.2652 12 60 12H54V7C54 6.73478 53.8946 6.48043 53.7071 6.29289C53.5196 6.10536 53.2652 6 53 6ZM26 50H18V36H26V50ZM26 32.59L11.41 18H26V32.59ZM26 16H5V14H26V16ZM46 36V50H38V36H46ZM38 32.59V18H52.59L38 32.59ZM59 14V16H38V14H59Z" fill="white"/>
</svg>
